<?xml version="1.0" encoding="UTF-8" standalone="no"?>
<svg
   xmlns:dc="http://purl.org/dc/elements/1.1/"
   xmlns:cc="http://creativecommons.org/ns#"
   xmlns:rdf="http://www.w3.org/1999/02/22-rdf-syntax-ns#"
   xmlns:svg="http://www.w3.org/2000/svg"
   xmlns="http://www.w3.org/2000/svg"
   xmlns:sodipodi="http://sodipodi.sourceforge.net/DTD/sodipodi-0.dtd"
   xmlns:inkscape="http://www.inkscape.org/namespaces/inkscape"
   width="1em"
   height="1em"
   viewBox="0 0 16 16"
   class="bi bi-minecart-loaded"
   fill="currentColor"
   version="1.1"
   id="svg3141"
   sodipodi:docname="minecart-loaded.svg"
   inkscape:version="1.0.1 (3bc2e813f5, 2020-09-07)">
  <metadata
     id="metadata3147">
    <rdf:RDF>
      <cc:Work
         rdf:about="">
        <dc:format>image/svg+xml</dc:format>
        <dc:type
           rdf:resource="http://purl.org/dc/dcmitype/StillImage" />
      </cc:Work>
    </rdf:RDF>
  </metadata>
  <defs
     id="defs3145" />
  <sodipodi:namedview
     pagecolor="#ffffff"
     bordercolor="#666666"
     borderopacity="1"
     objecttolerance="10"
     gridtolerance="10"
     guidetolerance="10"
     inkscape:pageopacity="0"
     inkscape:pageshadow="2"
     inkscape:window-width="1920"
     inkscape:window-height="1017"
     id="namedview3143"
     showgrid="false"
     inkscape:zoom="53.125"
     inkscape:cx="8"
     inkscape:cy="8"
     inkscape:window-x="-8"
     inkscape:window-y="-8"
     inkscape:window-maximized="1"
     inkscape:current-layer="svg3141" />
  <path
     fill-rule="evenodd"
     d="M4 15a1 1 0 1 0 0-2 1 1 0 0 0 0 2zm0 1a2 2 0 1 0 0-4 2 2 0 0 0 0 4zm8-1a1 1 0 1 0 0-2 1 1 0 0 0 0 2zm0 1a2 2 0 1 0 0-4 2 2 0 0 0 0 4zM.115 3.18A.5.5 0 0 1 .5 3h15a.5.5 0 0 1 .491.592l-1.5 8A.5.5 0 0 1 14 12H2a.5.5 0 0 1-.491-.408l-1.5-8a.5.5 0 0 1 .106-.411zm.987.82l1.313 7h11.17l1.313-7H1.102z"
     id="path3137"
     style="fill:#f8f9fa;fill-opacity:1" />
  <path
     fill-rule="evenodd"
     d="M6 1a2.498 2.498 0 0 1 4 0c.818 0 1.545.394 2 1 .67 0 1.552.57 2 1h-2c-.314 0-.611-.15-.8-.4-.274-.365-.71-.6-1.2-.6-.314 0-.611-.15-.8-.4a1.497 1.497 0 0 0-2.4 0c-.189.25-.486.4-.8.4-.507 0-.955.251-1.228.638-.09.13-.194.25-.308.362H3c.13-.147.401-.432.562-.545a1.63 1.63 0 0 0 .393-.393A2.498 2.498 0 0 1 6 1z"
     id="path3139"
     style="fill:#f8f9fa;fill-opacity:1" />
</svg>
