<?xml version="1.0" encoding="UTF-8" standalone="no"?>
<svg
   xmlns:dc="http://purl.org/dc/elements/1.1/"
   xmlns:cc="http://creativecommons.org/ns#"
   xmlns:rdf="http://www.w3.org/1999/02/22-rdf-syntax-ns#"
   xmlns:svg="http://www.w3.org/2000/svg"
   xmlns="http://www.w3.org/2000/svg"
   xmlns:sodipodi="http://sodipodi.sourceforge.net/DTD/sodipodi-0.dtd"
   xmlns:inkscape="http://www.inkscape.org/namespaces/inkscape"
   width="1em"
   height="1em"
   viewBox="0 0 16 16"
   class="bi bi-egg-fried"
   fill="currentColor"
   version="1.1"
   id="svg4285"
   sodipodi:docname="egg-fried.svg"
   inkscape:version="1.0.1 (3bc2e813f5, 2020-09-07)">
  <metadata
     id="metadata4291">
    <rdf:RDF>
      <cc:Work
         rdf:about="">
        <dc:format>image/svg+xml</dc:format>
        <dc:type
           rdf:resource="http://purl.org/dc/dcmitype/StillImage" />
      </cc:Work>
    </rdf:RDF>
  </metadata>
  <defs
     id="defs4289" />
  <sodipodi:namedview
     pagecolor="#ffffff"
     bordercolor="#666666"
     borderopacity="1"
     objecttolerance="10"
     gridtolerance="10"
     guidetolerance="10"
     inkscape:pageopacity="0"
     inkscape:pageshadow="2"
     inkscape:window-width="1920"
     inkscape:window-height="1017"
     id="namedview4287"
     showgrid="false"
     inkscape:zoom="53.125"
     inkscape:cx="8"
     inkscape:cy="8"
     inkscape:window-x="-8"
     inkscape:window-y="-8"
     inkscape:window-maximized="1"
     inkscape:current-layer="svg4285" />
  <path
     fill-rule="evenodd"
     d="M13.665 6.113a1 1 0 0 1-.667-.977L13 5a4 4 0 0 0-6.483-3.136 1 1 0 0 1-.8.2 4 4 0 0 0-3.693 6.61 1 1 0 0 1 .2 1 4 4 0 0 0 6.67 4.087 1 1 0 0 1 1.262-.152 2.5 2.5 0 0 0 3.715-2.905 1 1 0 0 1 .341-1.113 2.001 2.001 0 0 0-.547-3.478zM14 5c0 .057 0 .113-.003.17a3.001 3.001 0 0 1 .822 5.216 3.5 3.5 0 0 1-5.201 4.065 5 5 0 0 1-8.336-5.109A5 5 0 0 1 5.896 1.08 5 5 0 0 1 14 5z"
     id="path4281"
     style="fill:#f8f9fa;fill-opacity:1" />
  <circle
     cx="8"
     cy="8"
     r="3"
     id="circle4283"
     style="fill:#f8f9fa;fill-opacity:1" />
</svg>
