<?xml version="1.0" encoding="UTF-8" standalone="no"?>
<svg
   xmlns:dc="http://purl.org/dc/elements/1.1/"
   xmlns:cc="http://creativecommons.org/ns#"
   xmlns:rdf="http://www.w3.org/1999/02/22-rdf-syntax-ns#"
   xmlns:svg="http://www.w3.org/2000/svg"
   xmlns="http://www.w3.org/2000/svg"
   xmlns:sodipodi="http://sodipodi.sourceforge.net/DTD/sodipodi-0.dtd"
   xmlns:inkscape="http://www.inkscape.org/namespaces/inkscape"
   id="Capa_1"
   enable-background="new 0 0 512 512"
   height="512"
   viewBox="0 0 512 512"
   width="512"
   version="1.1"
   sodipodi:docname="food.svg"
   inkscape:version="1.0.1 (3bc2e813f5, 2020-09-07)">
  <metadata
     id="metadata2329">
    <rdf:RDF>
      <cc:Work
         rdf:about="">
        <dc:format>image/svg+xml</dc:format>
        <dc:type
           rdf:resource="http://purl.org/dc/dcmitype/StillImage" />
      </cc:Work>
    </rdf:RDF>
  </metadata>
  <defs
     id="defs2327" />
  <sodipodi:namedview
     pagecolor="#ffffff"
     bordercolor="#666666"
     borderopacity="1"
     objecttolerance="10"
     gridtolerance="10"
     guidetolerance="10"
     inkscape:pageopacity="0"
     inkscape:pageshadow="2"
     inkscape:window-width="1920"
     inkscape:window-height="1017"
     id="namedview2325"
     showgrid="false"
     inkscape:zoom="1.6601562"
     inkscape:cx="256"
     inkscape:cy="256"
     inkscape:window-x="-8"
     inkscape:window-y="-8"
     inkscape:window-maximized="1"
     inkscape:current-layer="Capa_1" />
  <g
     id="g2322">
    <g
       id="g2320">
      <g
         id="g2306">
        <path
           d="m467 439h-422c-24.813 0-45-20.187-45-45v-4c0-24.813 20.187-45 45-45h422c24.813 0 45 20.187 45 45v4c0 24.813-20.187 45-45 45zm-422-64c-8.271 0-15 6.729-15 15v4c0 8.271 6.729 15 15 15h422c8.271 0 15-6.729 15-15v-4c0-8.271-6.729-15-15-15z"
           fill="#222221"
           id="path2304"
           style="fill:#f8f9fa;fill-opacity:1" />
      </g>
      <g
         id="g2310">
        <path
           d="m320 103h-128c-8.284 0-15-6.716-15-15s6.716-15 15-15h128c8.284 0 15 6.716 15 15s-6.716 15-15 15z"
           fill="#222221"
           id="path2308"
           style="fill:#f8f9fa;fill-opacity:1" />
      </g>
      <g
         id="g2314">
        <path
           d="m288 167h-64c-8.284 0-15-6.716-15-15v-64c0-8.284 6.716-15 15-15h64c8.284 0 15 6.716 15 15v64c0 8.284-6.716 15-15 15zm-49-30h34v-34h-34z"
           fill="#222221"
           id="path2312"
           style="fill:#f8f9fa;fill-opacity:1" />
      </g>
      <g
         id="g2318">
        <path
           d="m464 375h-416c-8.284 0-15-6.716-15-15 0-59.565 23.196-115.565 65.315-157.685s98.12-65.315 157.685-65.315 115.565 23.196 157.685 65.315 65.315 98.12 65.315 157.685c0 8.284-6.716 15-15 15zm-400.423-30h384.846c-7.68-99.438-91.049-178-192.423-178s-184.744 78.562-192.423 178z"
           fill="#222221"
           id="path2316"
           style="fill:#f8f9fa;fill-opacity:1" />
      </g>
    </g>
  </g>
</svg>
