<?xml version="1.0" encoding="UTF-8" standalone="no"?>
<svg
   xmlns:dc="http://purl.org/dc/elements/1.1/"
   xmlns:cc="http://creativecommons.org/ns#"
   xmlns:rdf="http://www.w3.org/1999/02/22-rdf-syntax-ns#"
   xmlns:svg="http://www.w3.org/2000/svg"
   xmlns="http://www.w3.org/2000/svg"
   xmlns:sodipodi="http://sodipodi.sourceforge.net/DTD/sodipodi-0.dtd"
   xmlns:inkscape="http://www.inkscape.org/namespaces/inkscape"
   width="1em"
   height="1em"
   viewBox="0 0 16 16"
   class="bi bi-gear"
   fill="currentColor"
   version="1.1"
   id="svg4283"
   sodipodi:docname="gear.svg"
   inkscape:version="1.0.1 (3bc2e813f5, 2020-09-07)">
  <metadata
     id="metadata4289">
    <rdf:RDF>
      <cc:Work
         rdf:about="">
        <dc:format>image/svg+xml</dc:format>
        <dc:type
           rdf:resource="http://purl.org/dc/dcmitype/StillImage" />
      </cc:Work>
    </rdf:RDF>
  </metadata>
  <defs
     id="defs4287" />
  <sodipodi:namedview
     pagecolor="#ffffff"
     bordercolor="#666666"
     borderopacity="1"
     objecttolerance="10"
     gridtolerance="10"
     guidetolerance="10"
     inkscape:pageopacity="0"
     inkscape:pageshadow="2"
     inkscape:window-width="1920"
     inkscape:window-height="1017"
     id="namedview4285"
     showgrid="false"
     inkscape:zoom="53.125"
     inkscape:cx="8"
     inkscape:cy="8"
     inkscape:window-x="-8"
     inkscape:window-y="-8"
     inkscape:window-maximized="1"
     inkscape:current-layer="svg4283" />
  <path
     fill-rule="evenodd"
     d="M8.837 1.626c-.246-.835-1.428-.835-1.674 0l-.094.319A1.873 1.873 0 0 1 4.377 3.06l-.292-.16c-.764-.415-1.6.42-1.184 1.185l.159.292a1.873 1.873 0 0 1-1.115 2.692l-.319.094c-.835.246-.835 1.428 0 1.674l.319.094a1.873 1.873 0 0 1 1.115 2.693l-.16.291c-.415.764.42 1.6 1.185 1.184l.292-.159a1.873 1.873 0 0 1 2.692 1.116l.094.318c.246.835 1.428.835 1.674 0l.094-.319a1.873 1.873 0 0 1 2.693-1.115l.291.16c.764.415 1.6-.42 1.184-1.185l-.159-.291a1.873 1.873 0 0 1 1.116-2.693l.318-.094c.835-.246.835-1.428 0-1.674l-.319-.094a1.873 1.873 0 0 1-1.115-2.692l.16-.292c.415-.764-.42-1.6-1.185-1.184l-.291.159A1.873 1.873 0 0 1 8.93 1.945l-.094-.319zm-2.633-.283c.527-1.79 3.065-1.79 3.592 0l.094.319a.873.873 0 0 0 1.255.52l.292-.16c1.64-.892 3.434.901 2.54 2.541l-.159.292a.873.873 0 0 0 .52 1.255l.319.094c1.79.527 1.79 3.065 0 3.592l-.319.094a.873.873 0 0 0-.52 1.255l.16.292c.893 1.64-.902 3.434-2.541 2.54l-.292-.159a.873.873 0 0 0-1.255.52l-.094.319c-.527 1.79-3.065 1.79-3.592 0l-.094-.319a.873.873 0 0 0-1.255-.52l-.292.16c-1.64.893-3.433-.902-2.54-2.541l.159-.292a.873.873 0 0 0-.52-1.255l-.319-.094c-1.79-.527-1.79-3.065 0-3.592l.319-.094a.873.873 0 0 0 .52-1.255l-.16-.292c-.892-1.64.902-3.433 2.541-2.54l.292.159a.873.873 0 0 0 1.255-.52l.094-.319z"
     id="path4279"
     style="fill:#f8f9fa;fill-opacity:1" />
  <path
     fill-rule="evenodd"
     d="M8 5.754a2.246 2.246 0 1 0 0 4.492 2.246 2.246 0 0 0 0-4.492zM4.754 8a3.246 3.246 0 1 1 6.492 0 3.246 3.246 0 0 1-6.492 0z"
     id="path4281"
     style="fill:#f8f9fa;fill-opacity:1" />
</svg>
