<?xml version="1.0" encoding="UTF-8" standalone="no"?>
<svg
   xmlns:dc="http://purl.org/dc/elements/1.1/"
   xmlns:cc="http://creativecommons.org/ns#"
   xmlns:rdf="http://www.w3.org/1999/02/22-rdf-syntax-ns#"
   xmlns:svg="http://www.w3.org/2000/svg"
   xmlns="http://www.w3.org/2000/svg"
   xmlns:sodipodi="http://sodipodi.sourceforge.net/DTD/sodipodi-0.dtd"
   xmlns:inkscape="http://www.inkscape.org/namespaces/inkscape"
   width="1em"
   height="1em"
   viewBox="0 0 16 16"
   class="bi bi-receipt"
   fill="currentColor"
   version="1.1"
   id="svg5427"
   sodipodi:docname="receipt.svg"
   inkscape:version="1.0.1 (3bc2e813f5, 2020-09-07)">
  <metadata
     id="metadata5433">
    <rdf:RDF>
      <cc:Work
         rdf:about="">
        <dc:format>image/svg+xml</dc:format>
        <dc:type
           rdf:resource="http://purl.org/dc/dcmitype/StillImage" />
      </cc:Work>
    </rdf:RDF>
  </metadata>
  <defs
     id="defs5431" />
  <sodipodi:namedview
     pagecolor="#ffffff"
     bordercolor="#666666"
     borderopacity="1"
     objecttolerance="10"
     gridtolerance="10"
     guidetolerance="10"
     inkscape:pageopacity="0"
     inkscape:pageshadow="2"
     inkscape:window-width="1920"
     inkscape:window-height="1017"
     id="namedview5429"
     showgrid="false"
     inkscape:zoom="53.125"
     inkscape:cx="8"
     inkscape:cy="8"
     inkscape:window-x="-8"
     inkscape:window-y="-8"
     inkscape:window-maximized="1"
     inkscape:current-layer="svg5427" />
  <path
     fill-rule="evenodd"
     d="M1.92.506a.5.5 0 0 1 .434.14L3 1.293l.646-.647a.5.5 0 0 1 .708 0L5 1.293l.646-.647a.5.5 0 0 1 .708 0L7 1.293l.646-.647a.5.5 0 0 1 .708 0L9 1.293l.646-.647a.5.5 0 0 1 .708 0l.646.647.646-.647a.5.5 0 0 1 .708 0l.646.647.646-.647a.5.5 0 0 1 .801.13l.5 1A.5.5 0 0 1 15 2v12a.5.5 0 0 1-.053.224l-.5 1a.5.5 0 0 1-.8.13L13 14.707l-.646.647a.5.5 0 0 1-.708 0L11 14.707l-.646.647a.5.5 0 0 1-.708 0L9 14.707l-.646.647a.5.5 0 0 1-.708 0L7 14.707l-.646.647a.5.5 0 0 1-.708 0L5 14.707l-.646.647a.5.5 0 0 1-.708 0L3 14.707l-.646.647a.5.5 0 0 1-.801-.13l-.5-1A.5.5 0 0 1 1 14V2a.5.5 0 0 1 .053-.224l.5-1a.5.5 0 0 1 .367-.27zm.217 1.338L2 2.118v11.764l.137.274.51-.51a.5.5 0 0 1 .707 0l.646.647.646-.646a.5.5 0 0 1 .708 0l.646.646.646-.646a.5.5 0 0 1 .708 0l.646.646.646-.646a.5.5 0 0 1 .708 0l.646.646.646-.646a.5.5 0 0 1 .708 0l.646.646.646-.646a.5.5 0 0 1 .708 0l.509.509.137-.274V2.118l-.137-.274-.51.51a.5.5 0 0 1-.707 0L12 1.707l-.646.647a.5.5 0 0 1-.708 0L10 1.707l-.646.647a.5.5 0 0 1-.708 0L8 1.707l-.646.647a.5.5 0 0 1-.708 0L6 1.707l-.646.647a.5.5 0 0 1-.708 0L4 1.707l-.646.647a.5.5 0 0 1-.708 0l-.509-.51z"
     id="path5423"
     style="fill:#f8f9fa;fill-opacity:1" />
  <path
     fill-rule="evenodd"
     d="M3 4.5a.5.5 0 0 1 .5-.5h6a.5.5 0 1 1 0 1h-6a.5.5 0 0 1-.5-.5zm0 2a.5.5 0 0 1 .5-.5h6a.5.5 0 1 1 0 1h-6a.5.5 0 0 1-.5-.5zm0 2a.5.5 0 0 1 .5-.5h6a.5.5 0 1 1 0 1h-6a.5.5 0 0 1-.5-.5zm0 2a.5.5 0 0 1 .5-.5h6a.5.5 0 0 1 0 1h-6a.5.5 0 0 1-.5-.5zm8-6a.5.5 0 0 1 .5-.5h1a.5.5 0 0 1 0 1h-1a.5.5 0 0 1-.5-.5zm0 2a.5.5 0 0 1 .5-.5h1a.5.5 0 0 1 0 1h-1a.5.5 0 0 1-.5-.5zm0 2a.5.5 0 0 1 .5-.5h1a.5.5 0 0 1 0 1h-1a.5.5 0 0 1-.5-.5zm0 2a.5.5 0 0 1 .5-.5h1a.5.5 0 0 1 0 1h-1a.5.5 0 0 1-.5-.5z"
     id="path5425"
     style="fill:#f8f9fa;fill-opacity:1" />
</svg>
