<?xml version="1.0" encoding="UTF-8" standalone="no"?>
<svg
   xmlns:dc="http://purl.org/dc/elements/1.1/"
   xmlns:cc="http://creativecommons.org/ns#"
   xmlns:rdf="http://www.w3.org/1999/02/22-rdf-syntax-ns#"
   xmlns:svg="http://www.w3.org/2000/svg"
   xmlns="http://www.w3.org/2000/svg"
   xmlns:sodipodi="http://sodipodi.sourceforge.net/DTD/sodipodi-0.dtd"
   xmlns:inkscape="http://www.inkscape.org/namespaces/inkscape"
   version="1.0"
   width="148.000000pt"
   height="148.000000pt"
   viewBox="0 0 148.000000 148.000000"
   preserveAspectRatio="xMidYMid meet"
   id="svg951"
   sodipodi:docname="logo-light.svg"
   inkscape:version="1.0.1 (3bc2e813f5, 2020-09-07)">
  <defs
     id="defs955" />
  <sodipodi:namedview
     pagecolor="#ffffff"
     bordercolor="#666666"
     borderopacity="1"
     objecttolerance="10"
     gridtolerance="10"
     guidetolerance="10"
     inkscape:pageopacity="0"
     inkscape:pageshadow="2"
     inkscape:window-width="1920"
     inkscape:window-height="1017"
     id="namedview953"
     showgrid="false"
     inkscape:zoom="4.3074324"
     inkscape:cx="98.666667"
     inkscape:cy="98.666667"
     inkscape:window-x="-8"
     inkscape:window-y="-8"
     inkscape:window-maximized="1"
     inkscape:current-layer="svg951" />
  <metadata
     id="metadata895">
Created by potrace 1.10, written by Peter Selinger 2001-2011
<rdf:RDF>
  <cc:Work
     rdf:about="">
    <dc:format>image/svg+xml</dc:format>
    <dc:type
       rdf:resource="http://purl.org/dc/dcmitype/StillImage" />
    <dc:title></dc:title>
  </cc:Work>
</rdf:RDF>
</metadata>
  <g
     transform="translate(0.000000,148.000000) scale(0.100000,-0.100000)"
     fill="#000000"
     stroke="none"
     id="g949">
    <path
       d="M574 1390 c-195 -50 -353 -180 -443 -365 -190 -388 28 -848 453 -955 215 -54 449 9 614 165 112 105 165 196 202 342 36 144 19 305 -49 448 -135 287 -468 443 -777 365z m346 -16 c119 -35 200 -83 285 -168 69 -68 90 -96 128 -176 101 -211 101 -387 1 -598 -36 -75 -59 -107 -123 -171 -64 -65 -94 -87 -172 -124 -119 -57 -179 -71 -304 -71 -248 0 -477 140 -588 359 -75 149 -93 336 -48 485 49 161 141 289 269 373 80 53 181 94 260 107 77 12 225 4 292 -16z"
       id="path897"
       style="fill:#f8f9fa;fill-opacity:1;opacity:0" />
    <path
       d="M971 1304 c-11 -8 -21 -21 -21 -28 0 -15 -68 -51 -77 -42 -3 3 -18 -2 -33 -11 -29 -16 -60 -12 -60 8 0 8 4 8 15 -1 11 -9 19 -7 42 16 16 16 29 22 31 16 2 -7 8 -12 14 -12 6 0 6 6 -2 15 -8 9 -9 15 -2 15 6 0 14 -4 17 -10 3 -5 11 -10 17 -10 6 0 5 6 -3 16 -15 18 -62 13 -85 -11 -9 -8 -20 -15 -27 -15 -6 0 -2 6 9 14 26 19 10 32 -21 18 -14 -7 -35 -12 -45 -12 -11 0 -20 -4 -20 -10 0 -5 5 -10 11 -10 5 0 7 -5 4 -11 -5 -6 -12 -3 -21 10 -16 22 -44 18 -44 -5 0 -8 -6 -14 -13 -14 -7 0 -18 -9 -24 -19 -19 -30 14 -53 69 -50 24 2 49 0 55 -4 6 -4 14 -30 18 -58 5 -37 15 -60 36 -82 19 -19 27 -37 23 -46 -13 -34 -16 -89 -5 -110 10 -18 9 -22 -6 -28 -10 -3 -25 -12 -33 -19 -11 -9 -26 -11 -55 -4 -53 12 -70 6 -95 -36 -14 -25 -25 -34 -37 -30 -20 8 -53 -21 -53 -45 0 -19 37 -45 48 -34 6 6 -11 20 -33 28 -13 5 13 37 31 37 7 0 18 -9 24 -20 12 -22 40 -26 56 -10 8 8 15 6 24 -5 16 -19 44 -19 60 0 15 18 -1 20 -19 3 -10 -11 -16 -9 -29 7 -14 17 -22 19 -44 11 -33 -12 -47 -1 -30 22 7 9 16 27 22 40 10 24 35 28 87 13 22 -6 35 -6 39 1 4 5 22 16 40 24 30 12 33 17 24 34 -13 25 -13 83 2 115 10 23 8 29 -20 58 -30 32 -58 112 -42 122 11 7 40 -22 40 -39 0 -6 -5 -17 -12 -24 -9 -9 -5 -12 18 -12 25 0 34 -7 52 -41 19 -36 20 -42 7 -56 -17 -16 -20 -53 -5 -53 6 0 10 6 10 14 0 23 27 26 46 5 22 -24 34 -24 34 1 0 11 7 20 15 20 8 0 25 6 36 13 19 11 25 8 60 -32 29 -32 38 -50 34 -67 -3 -13 -8 -36 -11 -51 -4 -22 -3 -25 7 -16 6 6 12 26 13 42 1 39 16 41 16 2 0 -30 -53 -111 -79 -119 -8 -3 -11 0 -7 7 12 19 -8 12 -45 -14 -22 -17 -42 -24 -56 -20 -35 8 -81 -5 -86 -26 -3 -12 -14 -19 -30 -19 -14 0 -28 -7 -31 -16 -5 -12 -14 -15 -36 -10 -17 3 -30 1 -30 -4 0 -16 80 -12 86 4 3 8 11 13 18 10 6 -2 27 9 45 25 29 26 36 28 57 19 20 -10 30 -8 55 11 18 13 37 20 48 16 37 -11 119 102 107 149 -3 12 -31 50 -62 85 -52 57 -55 63 -35 68 26 7 29 43 4 42 -11 0 -13 -3 -6 -6 9 -3 3 -15 -18 -35 -27 -28 -32 -29 -46 -15 -18 17 -9 39 12 30 8 -3 15 0 15 7 0 9 -13 11 -45 8 -54 -7 -65 5 -33 32 20 18 21 19 3 13 -11 -3 -28 -13 -37 -21 -16 -14 -18 -13 -18 7 0 12 11 33 25 46 13 14 20 25 14 25 -13 0 -59 -46 -59 -60 0 -5 -7 -10 -15 -10 -8 0 -15 8 -15 18 0 10 -4 22 -10 28 -5 5 -7 19 -4 31 10 39 118 36 126 -3 2 -14 6 -12 15 9 9 20 9 25 0 22 -7 -3 -23 4 -37 14 -20 16 -22 21 -11 35 9 10 22 14 37 10 15 -4 24 -2 24 5 0 6 -4 11 -10 11 -16 0 -12 30 6 37 8 3 25 -4 38 -16 14 -13 29 -19 40 -15 19 7 46 -12 46 -33 0 -11 -7 -13 -26 -9 -19 5 -25 3 -21 -6 2 -8 18 -12 42 -11 73 5 93 -49 25 -67 -21 -6 -44 -18 -49 -28 -9 -16 -11 -16 -26 -1 -13 13 -15 21 -6 37 8 15 8 23 0 27 -6 4 -13 -2 -16 -14 -3 -12 -12 -21 -20 -21 -10 0 -12 6 -8 23 7 22 7 22 -9 2 -19 -25 -20 -35 -2 -35 8 0 29 -12 46 -26 l31 -27 25 24 c14 13 33 23 43 21 10 -1 26 7 36 18 25 27 11 72 -25 80 -14 3 -26 14 -28 25 -5 28 -31 46 -59 39 -12 -4 -23 -2 -23 3 0 6 -11 15 -24 21 -18 8 -28 7 -45 -4z m-201 -64 c0 -5 -4 -10 -10 -10 -5 0 -10 5 -10 10 0 6 5 10 10 10 6 0 10 -4 10 -10z m-30 -20 c21 -6 22 -8 8 -14 -9 -4 -25 -3 -36 3 -32 17 -71 -6 -42 -24 6 -3 10 1 10 9 0 18 16 21 25 6 7 -11 79 -6 150 10 50 12 55 12 55 1 0 -9 -38 -16 -147 -29 -38 -5 -63 -4 -63 1 0 5 -6 4 -14 -2 -13 -11 -46 -6 -46 7 0 3 7 14 17 24 17 19 41 21 83 8z m231 -208 c31 -28 31 -29 11 -34 -25 -7 -72 25 -72 48 0 23 27 16 61 -14z"
       id="path899"
       style="fill:#f8f9fa;fill-opacity:1" />
    <path
       d="M940 1120 c-12 -8 -9 -10 13 -10 15 0 27 5 27 10 0 13 -20 13 -40 0z"
       id="path901"
       style="fill:#f8f9fa;fill-opacity:1" />
    <path
       d="M1014 1095 c14 -10 15 -15 6 -15 -10 0 -11 -3 -3 -11 6 -6 16 -8 23 -4 13 8 -15 45 -34 45 -6 0 -2 -7 8 -15z"
       id="path903"
       style="fill:#f8f9fa;fill-opacity:1" />
    <path
       d="M1018 913 c6 -2 12 -9 12 -14 0 -6 -6 -9 -12 -8 -27 3 -44 -2 -68 -20 -24 -19 -24 -20 -6 -40 10 -11 34 -23 53 -27 23 -4 33 -11 29 -20 -3 -8 -2 -14 2 -14 4 0 13 23 20 52 9 38 9 55 1 65 -6 7 -8 13 -3 13 5 0 2 5 -6 10 -8 5 -19 9 -25 9 -5 0 -4 -3 3 -6z m2 -57 c0 -32 -12 -39 -44 -26 -32 12 -33 22 -3 36 36 18 47 16 47 -10z"
       id="path905"
       style="fill:#f8f9fa;fill-opacity:1" />
    <path
       d="M1083 913 c-15 -5 -17 -23 -4 -23 5 0 11 7 15 15 3 8 4 15 3 14 -1 0 -8 -3 -14 -6z"
       id="path907"
       style="fill:#f8f9fa;fill-opacity:1" />
    <path
       d="M870 890 c0 -5 5 -10 10 -10 6 0 10 5 10 10 0 6 -4 10 -10 10 -5 0 -10 -4 -10 -10z"
       id="path909"
       style="fill:#f8f9fa;fill-opacity:1" />
    <path
       d="M910 890 c0 -5 5 -10 11 -10 5 0 7 5 4 10 -3 6 -8 10 -11 10 -2 0 -4 -4 -4 -10z"
       id="path911"
       style="fill:#f8f9fa;fill-opacity:1" />
    <path
       d="M870 850 c0 -5 5 -10 10 -10 6 0 10 5 10 10 0 6 -4 10 -10 10 -5 0 -10 -4 -10 -10z"
       id="path913"
       style="fill:#f8f9fa;fill-opacity:1" />
    <path
       d="M905 840 c-3 -5 -1 -10 4 -10 6 0 11 5 11 10 0 6 -2 10 -4 10 -3 0 -8 -4 -11 -10z"
       id="path915"
       style="fill:#f8f9fa;fill-opacity:1" />
    <path
       d="M851 764 c10 -13 10 -17 -2 -25 -16 -10 -28 -12 -47 -10 -10 2 -10 -2 0 -18 10 -17 14 -18 21 -6 4 8 14 15 21 15 8 0 19 7 26 15 10 12 10 18 0 30 -7 8 -17 15 -22 15 -6 0 -5 -7 3 -16z"
       id="path917"
       style="fill:#f8f9fa;fill-opacity:1" />
    <path
       d="M955 741 c-3 -5 -1 -12 5 -16 5 -3 10 1 10 9 0 18 -6 21 -15 7z"
       id="path919"
       style="fill:#f8f9fa;fill-opacity:1" />
    <path
       d="M835 690 c-3 -5 -1 -10 4 -10 6 0 11 5 11 10 0 6 -2 10 -4 10 -3 0 -8 -4 -11 -10z"
       id="path921"
       style="fill:#f8f9fa;fill-opacity:1" />
    <path
       d="M1060 680 c0 -5 5 -10 10 -10 6 0 10 5 10 10 0 6 -4 10 -10 10 -5 0 -10 -4 -10 -10z"
       id="path923"
       style="fill:#f8f9fa;fill-opacity:1" />
    <path
       d="M630 650 c0 -5 5 -10 10 -10 6 0 10 5 10 10 0 6 -4 10 -10 10 -5 0 -10 -4 -10 -10z"
       id="path925"
       style="fill:#f8f9fa;fill-opacity:1" />
    <path
       d="M543 604 c-39 -49 -123 -134 -133 -134 -4 0 -26 -15 -49 -32 -22 -18 -54 -43 -71 -56 -16 -13 -30 -28 -30 -34 0 -5 14 2 31 16 17 14 36 26 44 26 7 0 18 7 25 15 12 14 60 22 60 10 0 -4 -7 -20 -16 -36 -16 -32 -14 -49 3 -27 14 19 43 96 43 116 0 9 16 30 35 45 20 16 47 46 60 68 15 23 33 39 45 39 31 0 34 -19 6 -41 -14 -11 -26 -28 -26 -38 0 -9 -13 -30 -30 -46 -16 -16 -30 -33 -30 -39 0 -17 70 57 88 94 18 38 58 57 49 23 -14 -47 -18 -123 -8 -123 6 0 11 8 12 18 0 13 2 13 9 -4 5 -12 13 -25 19 -29 6 -3 11 -20 11 -36 0 -30 38 -109 53 -109 12 0 8 13 -13 45 -11 17 -20 42 -20 56 0 15 -12 47 -26 72 -29 53 -30 110 -1 115 10 2 17 -3 17 -12 0 -8 9 -20 20 -26 12 -6 26 -23 32 -38 9 -23 12 -24 15 -9 3 11 -6 31 -22 47 -43 45 -12 69 39 29 20 -16 26 -29 26 -58 0 -27 7 -44 25 -61 14 -13 25 -31 25 -40 0 -9 7 -25 15 -36 8 -10 15 -31 15 -46 0 -16 5 -28 10 -28 20 0 4 69 -31 135 -6 11 17 -11 51 -48 34 -37 65 -66 67 -63 9 9 -112 136 -130 136 -10 0 -22 11 -27 26 -13 33 -13 34 6 27 15 -5 14 -3 -1 21 -19 29 -17 40 8 30 10 -3 19 -23 23 -49 4 -32 13 -49 33 -61 29 -19 120 -95 160 -134 14 -14 35 -32 46 -40 17 -13 17 -11 -3 17 -12 17 -44 47 -70 66 -26 20 -57 46 -69 59 -11 12 -32 31 -46 40 -17 12 -27 31 -32 58 -4 23 -13 46 -21 53 -8 7 -20 17 -27 22 -7 6 -34 9 -62 9 -27 -1 -65 5 -83 13 -19 8 -36 12 -39 9 -3 -3 5 -9 17 -14 14 -5 19 -11 13 -15 -16 -10 -42 2 -54 24 -16 31 -54 23 -86 -17z"
       id="path927"
       style="fill:#f8f9fa;fill-opacity:1" />
    <path
       d="M860 620 c0 -5 5 -10 10 -10 6 0 10 5 10 10 0 6 -4 10 -10 10 -5 0 -10 -4 -10 -10z"
       id="path929"
       style="fill:#f8f9fa;fill-opacity:1" />
    <path
       d="M900 610 c0 -5 5 -10 10 -10 6 0 10 5 10 10 0 6 -4 10 -10 10 -5 0 -10 -4 -10 -10z"
       id="path931"
       style="fill:#f8f9fa;fill-opacity:1" />
    <path
       d="M945 601 c-3 -5 -1 -12 5 -16 5 -3 10 1 10 9 0 18 -6 21 -15 7z"
       id="path933"
       style="fill:#f8f9fa;fill-opacity:1" />
    <path
       d="M915 550 c-3 -5 1 -10 9 -10 9 0 16 5 16 10 0 6 -4 10 -9 10 -6 0 -13 -4 -16 -10z"
       id="path935"
       style="fill:#f8f9fa;fill-opacity:1" />
    <path
       d="M956 541 c-4 -5 -2 -12 3 -15 5 -4 12 -2 15 3 4 5 2 12 -3 15 -5 4 -12 2 -15 -3z"
       id="path937"
       style="fill:#f8f9fa;fill-opacity:1" />
    <path
       d="M755 460 c-3 -5 -1 -10 4 -10 6 0 11 5 11 10 0 6 -2 10 -4 10 -3 0 -8 -4 -11 -10z"
       id="path939"
       style="fill:#f8f9fa;fill-opacity:1" />
    <path
       d="M612 428 c-7 -7 -12 -20 -12 -31 0 -18 -52 -47 -87 -47 -20 0 -50 -17 -43 -24 5 -4 88 15 123 29 9 4 20 19 23 34 4 14 11 32 17 39 12 16 -5 16 -21 0z"
       id="path941"
       style="fill:#f8f9fa;fill-opacity:1" />
    <path
       d="M757 420 c-3 -11 -2 -20 3 -20 4 0 10 9 13 20 3 11 2 20 -3 20 -4 0 -10 -9 -13 -20z"
       id="path943"
       style="fill:#f8f9fa;fill-opacity:1" />
    <path
       d="M480 400 c0 -6 -12 -22 -26 -37 -14 -14 -22 -28 -19 -32 7 -6 65 57 65 71 0 4 -4 8 -10 8 -5 0 -10 -5 -10 -10z"
       id="path945"
       style="fill:#f8f9fa;fill-opacity:1" />
    <path
       d="M372 310 c-18 -30 -14 -36 8 -12 21 22 25 32 12 32 -4 0 -13 -9 -20 -20z"
       id="path947"
       style="fill:#f8f9fa;fill-opacity:1" />
  </g>
</svg>
